<?xml version="1.0" encoding="iso-8859-1"?>
<!-- Uploaded to: SVG Repo, www.svgrepo.com, Generator: SVG Repo Mixer Tools -->
<svg height="800px" width="800px" version="1.1" id="Capa_1" xmlns="http://www.w3.org/2000/svg" xmlns:xlink="http://www.w3.org/1999/xlink" 
	 viewBox="0 0 455.001 455.001" xml:space="preserve">
<g>
	<g>
		<path style="fill:#E2DDBF;" d="M62.57,271.185l-9.89,6.606L34.177,290.15l18.299,4.692c3.535,0.907,6.296,3.667,7.202,7.203
			l8.786,34.259l34.255,8.782c3.536,0.906,6.297,3.668,7.203,7.203l8.782,34.255l34.255,8.781c3.536,0.907,6.297,3.668,7.203,7.204
			l0.115,0.447l14.502-19.581L62.57,271.185z"/>
		<polygon style="fill:#F24646;" points="114.242,222.051 105.993,230.3 77.981,258.312 188.442,368.773 224.595,332.405 		"/>
		<polygon style="fill:#E2DDBF;" points="207.91,128.383 199.661,136.632 128.383,207.909 238.844,318.37 319.693,240.167 		"/>
		<polygon style="fill:#F24646;" points="258.312,77.981 250.064,86.229 222.051,114.241 332.512,224.702 369.067,188.736 		"/>
		<path style="fill:#E2DDBF;" d="M386.034,160.164c-3.536-0.907-6.297-3.668-7.203-7.204l-8.782-34.254l-34.255-8.783
			c-3.536-0.906-6.297-3.668-7.203-7.203l-8.782-34.255l-34.259-8.786c-3.535-0.907-6.296-3.667-7.202-7.202l-0.117-0.455
			l-7.046,10.548l114.641,114.641l18.5-12.357L386.034,160.164z"/>
	</g>
	<path d="M454.858,159.045c-0.663-3.89-3.552-7.025-7.374-8.005l-34.254-8.781l-8.782-34.255c-0.906-3.536-3.667-6.297-7.203-7.203
		l-34.255-8.783l-8.782-34.254c-0.906-3.536-3.667-6.296-7.202-7.203l-34.259-8.786l-8.786-34.259
		c-0.98-3.822-4.116-6.71-8.005-7.373c-3.888-0.665-7.805,1.022-9.997,4.303l-35.415,53.019L57.464,250.544L4.446,285.958
		c-3.281,2.191-4.967,6.107-4.303,9.997c0.663,3.89,3.552,7.025,7.373,8.005l34.259,8.786l8.786,34.259
		c0.906,3.536,3.668,6.296,7.203,7.203l34.255,8.782l8.782,34.255c0.906,3.536,3.667,6.297,7.203,7.204l34.255,8.781l8.781,34.254
		c0.979,3.822,4.115,6.71,8.005,7.374c0.562,0.096,1.125,0.143,1.684,0.143c3.302,0,6.44-1.64,8.314-4.446l35.415-53.019
		l193.079-193.08l53.019-35.415C453.836,166.851,455.522,162.935,454.858,159.045z M164.852,420.822l-4.575-17.845l-0.115-0.447
		c-0.906-3.536-3.667-6.297-7.203-7.204l-34.255-8.781l-8.782-34.255c-0.906-3.536-3.667-6.297-7.203-7.203l-34.255-8.782
		l-8.786-34.259c-0.906-3.536-3.667-6.296-7.202-7.203l-18.299-4.692l18.502-12.359l9.89-6.606l112.21,112.21l9.037,9.036
		L164.852,420.822z M196.689,377.021l-8.247-8.247L77.981,258.312l28.012-28.012l8.248-8.248l110.353,110.354l8.355,8.355
		L196.689,377.021z M247.091,326.618l-8.247-8.247L128.383,207.909l71.278-71.278l8.248-8.248l111.783,111.784l6.925,6.925
		L247.091,326.618z M340.759,232.95l-8.247-8.247L222.051,114.241l28.012-28.012l8.248-8.248l110.755,110.755l7.953,7.953
		L340.759,232.95z M392.431,183.816l-6.605-6.605L271.185,62.569l7.046-10.548l11.92-17.844l4.692,18.299
		c0.906,3.535,3.667,6.295,7.202,7.202l34.259,8.786l8.782,34.255c0.906,3.536,3.667,6.297,7.203,7.203l34.255,8.783l8.782,34.254
		c0.906,3.536,3.667,6.297,7.203,7.204l18.292,4.689L392.431,183.816z"/>
</g>
</svg>